<?xml version="1.0" encoding="UTF-8" standalone="no"?>
<!DOCTYPE svg PUBLIC "-//W3C//DTD SVG 20010904//EN"
              "http://www.w3.org/TR/2001/REC-SVG-20010904/DTD/svg10.dtd">

<svg xmlns="http://www.w3.org/2000/svg"
     viewBox="0 0 142 53" style="enable-background:new 0 0 142 53;" xml:space="preserve">
	 <style type="text/css">
	.st0{fill:#FF6400;
		 stroke:#F0F0F0;
		 stroke-width:0.3;}
</style>

  <path id="Importierter Pfad #98"
        class="st0"
        d="M 37.38,5.53
           C 33.02,2.84 28.52,1.30 26.00,0.97
             24.00,0.71 22.64,0.66 21.60,0.80
             20.29,0.98 18.52,1.74 17.82,2.78
             16.94,4.12 16.24,7.90 16.48,10.03
             16.51,10.29 16.55,10.55 16.59,10.81
             17.50,16.27 20.83,16.91 27.68,16.99
             27.68,16.99 27.75,16.99 27.75,16.99
             27.89,16.99 28.04,16.99 28.18,16.99
             34.94,16.99 37.58,20.69 38.59,23.24
             38.60,23.09 38.61,22.94 38.61,22.80
             38.61,22.77 38.62,22.73 38.62,22.70
             38.63,22.57 38.64,22.45 38.65,22.32
             38.65,22.27 38.65,22.21 38.66,22.15
             38.67,22.05 38.68,21.95 38.69,21.85
             38.69,21.80 38.69,21.74 38.70,21.68
             38.71,21.58 38.73,21.48 38.73,21.39
             38.74,21.34 38.75,21.29 38.75,21.24
             38.77,21.10 38.79,20.95 38.81,20.82
             38.81,20.80 38.81,20.78 38.82,20.76
             38.84,20.64 38.86,20.52 38.87,20.41
             38.88,20.36 38.89,20.32 38.90,20.27
             38.92,20.18 38.94,20.09 38.95,20.00
             38.96,19.95 38.98,19.91 38.99,19.86
             39.00,19.77 39.02,19.69 39.05,19.60
             39.06,19.56 39.06,19.52 39.08,19.48
             39.11,19.36 39.14,19.24 39.18,19.12
             39.18,19.12 39.19,19.11 39.19,19.10
             39.23,18.99 39.26,18.89 39.30,18.78
             39.31,18.74 39.32,18.71 39.34,18.67
             39.37,18.59 39.40,18.52 39.43,18.44
             39.44,18.40 39.46,18.36 39.47,18.32
             39.51,18.25 39.54,18.17 39.58,18.10
             39.59,18.07 39.61,18.04 39.62,18.00
             39.68,17.89 39.73,17.79 39.79,17.69
             39.82,17.64 39.85,17.58 39.89,17.52
             39.90,17.51 39.91,17.49 39.92,17.47
             39.94,17.44 39.97,17.40 39.99,17.36
             40.00,17.34 40.02,17.32 40.03,17.30
             40.05,17.27 40.07,17.23 40.10,17.20
             40.11,17.18 40.13,17.16 40.14,17.14
             40.17,17.11 40.19,17.08 40.21,17.05
             40.23,17.03 40.25,17.00 40.26,16.98
             40.29,16.96 40.31,16.93 40.33,16.90
             40.35,16.88 40.37,16.85 40.38,16.83
             40.41,16.81 40.43,16.78 40.45,16.75
             40.47,16.73 40.49,16.71 40.51,16.69
             40.53,16.67 40.56,16.64 40.58,16.61
             40.60,16.59 40.62,16.57 40.64,16.55
             40.67,16.53 40.69,16.50 40.71,16.48
             40.74,16.46 40.76,16.44 40.78,16.42
             40.80,16.40 40.82,16.37 40.85,16.35
             40.87,16.33 40.89,16.31 40.92,16.29
             40.94,16.26 40.97,16.24 41.00,16.22
             41.02,16.20 41.04,16.18 41.07,16.16
             41.09,16.14 41.12,16.12 41.15,16.10
             41.17,16.08 41.19,16.06 41.22,16.04
             41.24,16.02 41.27,16.00 41.30,15.98
             41.32,15.96 41.35,15.94 41.38,15.92
             41.40,15.90 41.43,15.88 41.46,15.86
             41.49,15.85 41.51,15.83 41.54,15.81
             41.57,15.79 41.60,15.77 41.63,15.75
             41.65,15.73 41.68,15.72 41.71,15.70
             41.74,15.68 41.77,15.67 41.80,15.65
             41.83,15.63 41.85,15.61 41.88,15.60
             41.91,15.58 41.94,15.56 41.98,15.54
             42.01,15.53 42.04,15.51 42.06,15.50
             42.09,15.48 42.13,15.46 42.16,15.45
             42.19,15.43 42.22,15.42 42.25,15.40
             42.28,15.39 42.31,15.37 42.35,15.35
             42.38,15.34 42.41,15.33 42.44,15.31
             42.47,15.30 42.51,15.28 42.54,15.27
             42.57,15.25 42.61,15.24 42.64,15.23
             42.67,15.21 42.71,15.19 42.75,15.18
             42.78,15.17 42.81,15.16 42.84,15.14
             42.87,15.13 42.91,15.11 42.95,15.10
             42.98,15.08 43.02,15.07 43.05,15.06
             43.09,15.04 43.13,15.03 43.16,15.02
             43.19,15.00 43.23,14.99 43.26,14.98
             43.30,14.97 43.34,14.95 43.38,14.94
             43.41,14.93 43.45,14.92 43.48,14.91
             43.52,14.90 43.57,14.88 43.61,14.87
             43.65,14.86 43.68,14.85 43.71,14.84
             43.76,14.83 43.80,14.81 43.84,14.80
             43.88,14.79 43.91,14.78 43.95,14.77
             43.99,14.76 44.04,14.75 44.08,14.74
             44.12,14.73 44.15,14.72 44.18,14.71
             44.23,14.70 44.28,14.69 44.33,14.67
             44.37,14.67 44.40,14.66 44.43,14.65
             44.49,14.64 44.55,14.63 44.60,14.61
             44.63,14.61 44.66,14.60 44.69,14.60
             44.86,14.56 45.04,14.53 45.22,14.50
             45.24,14.49 45.27,14.49 45.30,14.48
             45.36,14.48 45.42,14.46 45.48,14.46
             44.79,11.49 41.92,8.33 37.38,5.53M 39.60,18.10
           C 39.56,18.18 39.53,18.25 39.50,18.33
             39.53,18.25 39.56,18.18 39.60,18.10M 39.91,17.53
           C 39.87,17.59 39.84,17.64 39.81,17.70
             39.84,17.64 39.87,17.58 39.91,17.53M 41.82,15.65
           C 41.79,15.66 41.75,15.68 41.72,15.70
             41.75,15.69 41.79,15.67 41.82,15.65M 39.81,17.70
           C 39.75,17.80 39.70,17.90 39.64,18.01
             39.70,17.90 39.75,17.80 39.81,17.70M 39.06,19.61
           C 39.04,19.69 39.02,19.78 39.00,19.87
             39.02,19.78 39.04,19.69 39.06,19.61M 39.20,19.12
           C 39.16,19.24 39.13,19.36 39.10,19.48
             39.13,19.37 39.16,19.24 39.20,19.12M 39.45,18.44
           C 39.42,18.52 39.39,18.59 39.36,18.67
             39.39,18.59 39.42,18.52 39.45,18.44M 43.40,14.94
           C 43.36,14.95 43.32,14.96 43.28,14.98
             43.32,14.96 43.36,14.95 43.40,14.94M 39.32,18.78
           C 39.28,18.88 39.24,18.99 39.21,19.10
             39.24,18.99 39.28,18.88 39.32,18.78M 42.18,15.45
           C 42.15,15.46 42.11,15.48 42.08,15.50
             42.11,15.48 42.14,15.46 42.18,15.45M 43.18,15.01
           C 43.14,15.02 43.10,15.04 43.07,15.05
             43.10,15.04 43.14,15.02 43.18,15.01M 40.35,16.90
           C 40.33,16.93 40.31,16.96 40.29,16.99
             40.31,16.96 40.33,16.93 40.35,16.90M 42.56,15.26
           C 42.53,15.28 42.49,15.29 42.46,15.31
             42.49,15.29 42.53,15.27 42.56,15.26M 40.48,16.76
           C 40.45,16.79 40.43,16.81 40.41,16.84
             40.43,16.81 40.45,16.79 40.48,16.76M 42.97,15.09
           C 42.93,15.10 42.89,15.12 42.86,15.13
             42.89,15.12 42.93,15.10 42.97,15.09M 40.60,16.62
           C 40.58,16.64 40.56,16.67 40.53,16.69
             40.56,16.67 40.58,16.65 40.60,16.62M 40.74,16.48
           C 40.71,16.50 40.69,16.53 40.67,16.55
             40.69,16.53 40.71,16.50 40.74,16.48M 40.23,17.05
           C 40.21,17.08 40.19,17.11 40.17,17.14
             40.19,17.11 40.21,17.08 40.23,17.05M 40.01,17.37
           C 39.99,17.40 39.96,17.44 39.94,17.48
             39.96,17.44 39.99,17.40 40.01,17.37M 41.02,16.22
           C 40.99,16.24 40.97,16.27 40.94,16.29
             40.97,16.27 40.99,16.25 41.02,16.22M 42.76,15.17
           C 42.72,15.19 42.69,15.20 42.65,15.22
             42.69,15.20 42.72,15.19 42.76,15.17M 40.12,17.21
           C 40.10,17.24 40.07,17.27 40.05,17.31
             40.07,17.27 40.10,17.24 40.12,17.21M 41.32,15.98
           C 41.30,16.00 41.27,16.02 41.24,16.04
             41.27,16.02 41.29,16.00 41.32,15.98M 44.35,14.67
           C 44.30,14.68 44.25,14.69 44.20,14.71
             44.25,14.69 44.30,14.68 44.35,14.67M 40.80,16.42
           C 40.82,16.40 40.85,16.37 40.87,16.35
             40.85,16.37 40.82,16.40 40.80,16.42M 41.99,15.54
           C 41.96,15.56 41.93,15.58 41.90,15.60
             41.93,15.58 41.96,15.56 41.99,15.54M 45.23,14.49
           C 45.05,14.52 44.88,14.56 44.70,14.59
             44.88,14.56 45.05,14.52 45.23,14.49M 41.17,16.10
           C 41.14,16.12 41.12,16.14 41.09,16.16
             41.12,16.14 41.14,16.12 41.17,16.10M 41.65,15.75
           C 41.62,15.77 41.59,15.79 41.56,15.81
             41.59,15.79 41.62,15.77 41.65,15.75M 44.62,14.61
           C 44.56,14.62 44.51,14.63 44.45,14.65
             44.51,14.63 44.56,14.62 44.62,14.61M 41.48,15.86
           C 41.45,15.88 41.42,15.90 41.40,15.92
             41.42,15.90 41.45,15.88 41.48,15.86M 44.10,14.73
           C 44.06,14.74 44.01,14.75 43.96,14.77
             44.01,14.75 44.06,14.74 44.10,14.73M 38.65,22.32
           C 38.65,22.45 38.64,22.57 38.63,22.70
             38.64,22.57 38.65,22.44 38.65,22.32M 38.82,20.82
           C 38.80,20.95 38.78,21.10 38.76,21.24
             38.78,21.10 38.80,20.95 38.82,20.82M 38.89,20.41
           C 38.87,20.52 38.85,20.64 38.83,20.76
             38.85,20.64 38.87,20.52 38.89,20.41M 43.63,14.86
           C 43.58,14.88 43.54,14.89 43.50,14.90
             43.54,14.89 43.58,14.88 43.63,14.86M 38.97,20.01
           C 38.95,20.10 38.93,20.18 38.91,20.27
             38.93,20.18 38.95,20.10 38.97,20.01M 38.69,21.85
           C 38.69,21.95 38.68,22.05 38.67,22.15
             38.68,22.05 38.69,21.95 38.69,21.85M 42.37,15.35
           C 42.33,15.37 42.30,15.38 42.27,15.40
             42.30,15.38 42.33,15.37 42.37,15.35M 38.75,21.38
           C 38.73,21.48 38.73,21.58 38.71,21.68
             38.72,21.58 38.73,21.48 38.75,21.38M 43.86,14.79
           C 43.82,14.81 43.77,14.82 43.73,14.83
             43.77,14.82 43.82,14.81 43.86,14.79M 32.30,35.05
           C 34.86,35.15 36.83,35.43 38.35,36.15
             40.31,37.09 41.41,38.70 41.91,41.36
             45.15,40.71 48.60,38.09 51.66,33.94
             54.61,29.95 56.29,25.84 56.65,23.53
             56.93,21.70 56.99,20.46 56.83,19.51
             56.64,18.31 55.81,16.69 54.67,16.06
             53.21,15.25 49.06,14.61 46.75,14.83
             46.46,14.86 46.17,14.89 45.89,14.93
             39.92,15.76 39.22,18.81 39.13,25.07
             39.13,25.07 39.13,25.14 39.13,25.14
             39.30,31.61 35.14,34.11 32.30,35.05M 42.27,15.40
           C 42.24,15.42 42.21,15.43 42.18,15.44
             42.21,15.43 42.24,15.42 42.27,15.40M 41.90,15.60
           C 41.87,15.61 41.85,15.63 41.82,15.65
             41.85,15.63 41.87,15.61 41.90,15.60M 42.08,15.50
           C 42.05,15.51 42.02,15.53 42.00,15.54
             42.02,15.53 42.05,15.51 42.08,15.50M 43.06,15.05
           C 43.03,15.06 43.00,15.08 42.97,15.09
             43.00,15.08 43.03,15.06 43.06,15.05M 44.21,14.71
           C 44.17,14.71 44.14,14.72 44.10,14.73
             44.14,14.72 44.17,14.71 44.21,14.71M 44.45,14.65
           C 44.42,14.65 44.39,14.66 44.35,14.67
             44.39,14.66 44.42,14.65 44.45,14.65M 44.70,14.59
           C 44.68,14.59 44.65,14.60 44.62,14.60
             44.65,14.60 44.68,14.60 44.70,14.59M 45.31,14.48
           C 45.29,14.48 45.26,14.48 45.23,14.49
             45.26,14.49 45.29,14.48 45.31,14.48M 42.46,15.31
           C 42.42,15.32 42.39,15.33 42.37,15.35
             42.39,15.33 42.42,15.32 42.46,15.31M 43.96,14.77
           C 43.93,14.77 43.90,14.79 43.86,14.79
             43.89,14.79 43.93,14.77 43.96,14.77M 42.86,15.13
           C 42.83,15.15 42.80,15.16 42.76,15.17
             42.79,15.16 42.83,15.15 42.86,15.13M 43.73,14.83
           C 43.69,14.84 43.66,14.85 43.63,14.87
             43.66,14.85 43.69,14.84 43.73,14.83M 42.65,15.22
           C 42.62,15.23 42.59,15.25 42.56,15.26
             42.59,15.25 42.62,15.23 42.65,15.22M 43.50,14.90
           C 43.47,14.92 43.43,14.92 43.40,14.94
             43.43,14.92 43.47,14.92 43.50,14.90M 43.28,14.98
           C 43.25,14.99 43.21,15.00 43.18,15.01
             43.21,15.00 43.25,14.99 43.28,14.98M 39.21,19.10
           C 39.20,19.11 39.20,19.12 39.20,19.13
             39.20,19.12 39.20,19.11 39.21,19.10M 38.83,20.76
           C 38.83,20.78 38.83,20.80 38.82,20.82
             38.82,20.80 38.83,20.78 38.83,20.76M 41.73,15.70
           C 41.70,15.72 41.68,15.73 41.65,15.75
             41.67,15.74 41.70,15.72 41.73,15.70M 39.65,18.00
           C 39.63,18.04 39.62,18.07 39.60,18.10
             39.61,18.07 39.63,18.04 39.65,18.00M 39.10,19.49
           C 39.09,19.53 39.07,19.57 39.06,19.61
             39.07,19.57 39.08,19.53 39.10,19.49M 39.36,18.67
           C 39.34,18.71 39.33,18.74 39.32,18.78
             39.33,18.74 39.34,18.71 39.36,18.67M 39.50,18.33
           C 39.48,18.36 39.47,18.40 39.45,18.44
             39.46,18.40 39.48,18.36 39.50,18.33M 38.91,20.27
           C 38.91,20.32 38.90,20.36 38.89,20.41
             38.90,20.36 38.91,20.32 38.91,20.27M 38.76,21.24
           C 38.76,21.29 38.75,21.33 38.74,21.38
             38.75,21.33 38.76,21.29 38.76,21.24M 40.87,16.35
           C 40.89,16.33 40.92,16.31 40.94,16.29
             40.92,16.31 40.89,16.33 40.87,16.35M 38.63,22.70
           C 38.63,22.73 38.62,22.77 38.62,22.80
             38.62,22.77 38.62,22.73 38.63,22.70M 38.71,21.68
           C 38.71,21.74 38.70,21.79 38.69,21.85
             38.70,21.80 38.71,21.74 38.71,21.68M 38.67,22.15
           C 38.66,22.21 38.66,22.27 38.65,22.32
             38.66,22.27 38.66,22.21 38.67,22.15M 39.00,19.87
           C 38.99,19.91 38.98,19.96 38.97,20.01
             38.98,19.96 38.99,19.91 39.00,19.87M 41.24,16.04
           C 41.22,16.06 41.19,16.08 41.17,16.10
             41.19,16.08 41.22,16.06 41.24,16.04M 41.09,16.17
           C 41.07,16.19 41.04,16.20 41.02,16.22
             41.04,16.20 41.06,16.18 41.09,16.17M 40.80,16.42
           C 40.78,16.44 40.75,16.46 40.74,16.48
             40.76,16.46 40.78,16.44 40.80,16.42M 41.40,15.92
           C 41.37,15.94 41.35,15.96 41.32,15.98
             41.34,15.96 41.37,15.94 41.40,15.92M 41.56,15.81
           C 41.53,15.83 41.50,15.85 41.48,15.86
             41.51,15.85 41.53,15.83 41.56,15.81M 39.94,17.48
           C 39.93,17.50 39.92,17.51 39.91,17.53
             39.92,17.51 39.93,17.50 39.94,17.48M 40.67,16.56
           C 40.65,16.58 40.63,16.60 40.60,16.62
             40.62,16.60 40.64,16.58 40.67,16.56M 40.29,16.99
           C 40.27,17.01 40.25,17.03 40.23,17.05
             40.25,17.03 40.27,17.01 40.29,16.99M 40.17,17.14
           C 40.15,17.17 40.14,17.19 40.12,17.21
             40.14,17.19 40.15,17.17 40.17,17.14M 40.05,17.31
           C 40.04,17.33 40.03,17.35 40.01,17.37
             40.03,17.35 40.04,17.33 40.05,17.31M 40.41,16.84
           C 40.39,16.86 40.37,16.88 40.35,16.90
             40.37,16.88 40.39,16.86 40.41,16.84M 40.53,16.69
           C 40.52,16.71 40.49,16.73 40.48,16.76
             40.49,16.74 40.52,16.72 40.53,16.69M 41.49,42.51
           C 41.46,42.24 41.42,41.98 41.38,41.72
             40.47,36.26 37.15,35.63 30.29,35.54
             30.29,35.54 30.22,35.54 30.22,35.54
             30.07,35.55 29.93,35.55 29.79,35.55
             23.03,35.55 20.39,31.84 19.38,29.30
             19.26,31.64 18.96,33.44 18.16,34.83
             17.14,36.62 15.38,37.63 12.47,38.08
             13.18,41.04 16.05,44.20 20.59,47.00
             24.95,49.69 29.45,51.23 31.97,51.56
             33.97,51.82 35.33,51.87 36.37,51.72
             37.68,51.55 39.45,50.79 40.14,49.74
             41.03,48.41 41.73,44.62 41.49,42.51 Z
           M 18.84,27.46
           C 18.84,27.46 18.84,27.39 18.84,27.39
             18.67,20.92 22.83,18.43 25.67,17.48
             23.11,17.37 21.14,17.10 19.62,16.37
             17.66,15.44 16.56,13.83 16.06,11.17
             12.82,11.82 9.37,14.44 6.30,18.59
             3.36,22.58 1.68,26.69 1.32,28.99
             1.03,30.82 0.98,32.06 1.14,33.01
             1.33,34.21 2.16,35.84 3.30,36.47
             4.76,37.27 8.90,37.92 11.22,37.69
             11.51,37.67 11.80,37.63 12.08,37.59
             18.05,36.77 18.75,33.72 18.84,27.46M 75.46,28.57
           C 75.46,28.57 68.13,28.57 68.13,28.57
             68.13,28.57 66.42,35.71 66.42,35.71
             66.42,35.71 60.23,35.71 60.23,35.71
             60.23,35.71 64.73,17.03 64.73,17.03
             64.73,17.03 70.92,17.03 70.92,17.03
             70.92,17.03 69.33,23.64 69.33,23.64
             69.33,23.64 76.65,23.64 76.65,23.64
             76.65,23.64 78.25,17.03 78.25,17.03
             78.25,17.03 84.43,17.03 84.43,17.03
             84.43,17.03 79.93,35.71 79.93,35.71
             79.93,35.71 73.74,35.71 73.74,35.71
             73.74,35.71 75.46,28.57 75.46,28.57 Z
           M 93.23,21.96
           C 93.23,21.96 87.74,21.96 87.74,21.96
             87.74,21.96 88.94,17.03 88.94,17.03
             88.94,17.03 106.07,17.03 106.07,17.03
             106.07,17.03 104.87,21.96 104.87,21.96
             104.87,21.96 99.42,21.96 99.42,21.96
             99.42,21.96 96.11,35.71 96.11,35.71
             96.11,35.71 89.92,35.71 89.92,35.71
             89.92,35.71 93.23,21.96 93.23,21.96 Z
           M 110.57,17.03
           C 110.57,17.03 116.76,17.03 116.76,17.03
             116.76,17.03 113.45,30.78 113.45,30.78
             113.45,30.78 121.20,30.78 121.20,30.78
             121.20,30.78 120.01,35.71 120.01,35.71
             120.01,35.71 106.07,35.71 106.07,35.71
             106.07,35.71 110.57,17.03 110.57,17.03 Z
           M 62.02,42.81
           C 62.02,42.81 61.14,43.73 61.14,43.73
             61.14,43.73 61.14,46.44 61.14,46.44
             61.14,46.44 60.04,46.44 60.04,46.44
             60.04,46.44 60.04,38.37 60.04,38.37
             60.04,38.37 61.14,38.37 61.14,38.37
             61.14,38.37 61.14,42.54 61.14,42.54
             61.14,42.54 65.04,38.37 65.04,38.37
             65.04,38.37 66.41,38.37 66.41,38.37
             66.41,38.37 62.74,42.21 62.74,42.21
             62.74,42.21 66.73,46.44 66.73,46.44
             66.73,46.44 65.37,46.44 65.37,46.44
             65.37,46.44 62.02,42.81 62.02,42.81 Z
           M 74.29,44.65
           C 74.29,44.65 69.81,44.65 69.81,44.65
             69.81,44.65 69.03,46.44 69.03,46.44
             69.03,46.44 67.82,46.44 67.82,46.44
             67.82,46.44 71.36,38.37 71.36,38.37
             71.36,38.37 72.72,38.37 72.72,38.37
             72.72,38.37 76.28,46.44 76.28,46.44
             76.28,46.44 75.07,46.44 75.07,46.44
             75.07,46.44 74.29,44.65 74.29,44.65 Z
           M 70.13,43.75
           C 70.13,43.75 73.95,43.75 73.95,43.75
             73.95,43.75 72.05,39.27 72.05,39.27
             72.05,39.27 70.13,43.75 70.13,43.75 Z
           M 77.29,38.37
           C 77.29,38.37 80.84,38.37 80.84,38.37
             82.61,38.37 83.60,39.48 83.60,40.80
             83.60,42.12 82.58,43.23 80.84,43.23
             80.84,43.23 78.39,43.23 78.39,43.23
             78.39,43.23 78.39,46.44 78.39,46.44
             78.39,46.44 77.29,46.44 77.29,46.44
             77.29,46.44 77.29,38.37 77.29,38.37
             77.29,38.37 77.29,38.37 77.29,38.37 Z
           M 80.71,39.27
           C 80.71,39.27 78.39,39.27 78.39,39.27
             78.39,39.27 78.39,42.34 78.39,42.34
             78.39,42.34 80.71,42.34 80.71,42.34
             81.75,42.34 82.47,41.71 82.47,40.80
             82.47,39.90 81.75,39.27 80.71,39.27 Z
           M 85.08,38.37
           C 85.08,38.37 90.87,38.37 90.87,38.37
             90.87,38.37 90.87,39.27 90.87,39.27
             90.87,39.27 86.18,39.27 86.18,39.27
             86.18,39.27 86.18,41.87 86.18,41.87
             86.18,41.87 90.77,41.87 90.77,41.87
             90.77,41.87 90.77,42.76 90.77,42.76
             90.77,42.76 86.18,42.76 86.18,42.76
             86.18,42.76 86.18,46.44 86.18,46.44
             86.18,46.44 85.08,46.44 85.08,46.44
             85.08,46.44 85.08,38.37 85.08,38.37 Z
           M 92.39,38.37
           C 92.39,38.37 98.17,38.37 98.17,38.37
             98.17,38.37 98.17,39.27 98.17,39.27
             98.17,39.27 93.49,39.27 93.49,39.27
             93.49,39.27 93.49,41.87 93.49,41.87
             93.49,41.87 98.08,41.87 98.08,41.87
             98.08,41.87 98.08,42.76 98.08,42.76
             98.08,42.76 93.49,42.76 93.49,42.76
             93.49,42.76 93.49,45.54 93.49,45.54
             93.49,45.54 98.17,45.54 98.17,45.54
             98.17,45.54 98.17,46.44 98.17,46.44
             98.17,46.44 92.39,46.44 92.39,46.44
             92.39,46.44 92.39,38.37 92.39,38.37 Z
           M 101.04,39.93
           C 101.04,39.93 101.04,46.44 101.04,46.44
             101.04,46.44 99.94,46.44 99.94,46.44
             99.94,46.44 99.94,38.37 99.94,38.37
             99.94,38.37 101.07,38.37 101.07,38.37
             101.07,38.37 106.15,44.75 106.15,44.75
             106.15,44.75 106.15,38.37 106.15,38.37
             106.15,38.37 107.24,38.37 107.24,38.37
             107.24,38.37 107.24,46.44 107.24,46.44
             107.24,46.44 106.19,46.44 106.19,46.44
             106.19,46.44 101.04,39.93 101.04,39.93 Z
           M 109.33,38.37
           C 109.33,38.37 113.26,38.37 113.26,38.37
             114.80,38.37 115.74,39.22 115.74,40.43
             115.74,41.44 115.00,42.12 114.19,42.28
             115.13,42.41 115.91,43.29 115.91,44.26
             115.91,45.56 114.97,46.44 113.36,46.44
             113.36,46.44 109.33,46.44 109.33,46.44
             109.33,46.44 109.33,38.37 109.33,38.37 Z
           M 113.08,41.87
           C 114.07,41.87 114.60,41.31 114.60,40.57
             114.60,39.85 114.07,39.27 113.08,39.27
             113.08,39.27 110.43,39.27 110.43,39.27
             110.43,39.27 110.43,41.87 110.43,41.87
             110.43,41.87 113.08,41.87 113.08,41.87 Z
           M 113.13,45.54
           C 114.16,45.54 114.77,45.01 114.77,44.15
             114.77,43.42 114.22,42.76 113.13,42.76
             113.13,42.76 110.43,42.76 110.43,42.76
             110.43,42.76 110.43,45.54 110.43,45.54
             110.43,45.54 113.13,45.54 113.13,45.54
             113.13,45.54 113.13,45.54 113.13,45.54 Z
           M 117.68,38.37
           C 117.68,38.37 123.46,38.37 123.46,38.37
             123.46,38.37 123.46,39.27 123.46,39.27
             123.46,39.27 118.78,39.27 118.78,39.27
             118.78,39.27 118.78,41.87 118.78,41.87
             118.78,41.87 123.37,41.87 123.37,41.87
             123.37,41.87 123.37,42.76 123.37,42.76
             123.37,42.76 118.78,42.76 118.78,42.76
             118.78,42.76 118.78,45.54 118.78,45.54
             118.78,45.54 123.46,45.54 123.46,45.54
             123.46,45.54 123.46,46.44 123.46,46.44
             123.46,46.44 117.68,46.44 117.68,46.44
             117.68,46.44 117.68,38.37 117.68,38.37 Z
           M 128.09,43.23
           C 128.09,43.23 126.33,43.23 126.33,43.23
             126.33,43.23 126.33,46.44 126.33,46.44
             126.33,46.44 125.23,46.44 125.23,46.44
             125.23,46.44 125.23,38.37 125.23,38.37
             125.23,38.37 128.78,38.37 128.78,38.37
             130.39,38.37 131.54,39.31 131.54,40.80
             131.54,42.25 130.46,43.05 129.25,43.15
             129.25,43.15 131.63,46.44 131.63,46.44
             131.63,46.44 130.34,46.44 130.34,46.44
             130.34,46.44 128.09,43.23 128.09,43.23 Z
           M 128.64,39.27
           C 128.64,39.27 126.33,39.27 126.33,39.27
             126.33,39.27 126.33,42.35 126.33,42.35
             126.33,42.35 128.64,42.35 128.64,42.35
             129.69,42.35 130.40,41.71 130.40,40.80
             130.40,39.90 129.69,39.27 128.64,39.27 Z
           M 137.48,38.24
           C 139.04,38.24 140.13,38.87 140.91,39.75
             140.91,39.75 140.03,40.25 140.03,40.25
             139.48,39.59 138.54,39.13 137.48,39.13
             135.55,39.13 134.08,40.49 134.08,42.41
             134.08,44.32 135.55,45.70 137.48,45.70
             138.54,45.70 139.41,45.23 139.85,44.83
             139.85,44.83 139.85,43.19 139.85,43.19
             139.85,43.19 136.82,43.19 136.82,43.19
             136.82,43.19 136.82,42.29 136.82,42.29
             136.82,42.29 140.95,42.29 140.95,42.29
             140.95,42.29 140.95,45.21 140.95,45.21
             140.13,46.04 138.92,46.60 137.48,46.60
             134.97,46.60 132.94,44.91 132.94,42.41
             132.95,39.91 134.97,38.24 137.48,38.24 Z" />
</svg>
